<svg width="75" height="75" fill="none" xmlns="http://www.w3.org/2000/svg"><path fill-rule="evenodd" clip-rule="evenodd" d="M1.979.278c-.322.15-.797.494-1.055.766C-.075 2.097.001-.544.001 32.958c0 33.501-.076 30.86.923 31.913.98 1.032 1.014 1.037 7.08 1.04 4.968.004 5.468-.018 5.755-.252.473-.387.55-1.19.16-1.685l-.316-.402H8.628c-5.56 0-5.821-.038-6.117-.886-.122-.35-.166-8.287-.166-29.755 0-32.174-.06-30.091.885-30.421.345-.12 4.88-.166 16.334-.166h15.858l.05 4.064c.051 4.027.055 4.073.435 4.883a4.708 4.708 0 002.313 2.314c.805.377.878.384 4.516.43l3.699.045v2.602c0 2.53.01 2.61.339 2.92.686.645 1.857.3 2.086-.614.05-.196.067-1.862.04-3.703-.044-3.01-.078-3.401-.341-3.888-.161-.298-2.46-2.86-5.11-5.693-3.565-3.81-4.975-5.222-5.42-5.424-.577-.262-1.33-.274-18.033-.274C3.324.006 2.539.018 1.979.278zM52.31.256c-.246.204-.434.848-.92 3.154l-.611 2.897.296.399c.549.737 1.58.808 2.014.14.117-.18.403-1.25.634-2.378l.422-2.051 1.052-.043c.579-.024 1.052.01 1.052.075 0 .53.924 4.242 1.106 4.443.128.142.804.434 1.504.65.7.215 1.766.656 2.37.98.611.327 1.303.588 1.558.588.327 0 .91-.301 2.019-1.045.858-.576 1.661-1.086 1.785-1.134.234-.09 1.523 1.044 1.523 1.34 0 .084-.484.878-1.075 1.764-.59.885-1.117 1.781-1.169 1.991-.07.285.067.69.547 1.611.354.677.82 1.803 1.037 2.502.218.7.508 1.374.645 1.498.138.125 1.221.436 2.409.692l2.159.467-.043 1.032-.043 1.033-.585.116c-2.659.528-3.65.777-3.897.98-.159.129-.389.63-.511 1.113-.123.484-.56 1.571-.97 2.417-.41.846-.747 1.72-.748 1.942-.004.903 1.144 1.449 1.914.91.43-.301 1.27-1.83 1.785-3.243l.417-1.147 2.25-.479c1.724-.366 2.31-.55 2.506-.785.223-.266.256-.644.256-2.901 0-3.247.168-3.03-2.821-3.657-1.19-.25-2.19-.454-2.222-.454-.033 0-.105-.214-.16-.476-.055-.262-.354-1.021-.663-1.688l-.563-1.213 1.17-1.789c1.226-1.874 1.39-2.238 1.253-2.782-.046-.183-.867-1.105-1.824-2.05-1.497-1.48-1.806-1.72-2.212-1.72-.345 0-.98.333-2.363 1.237l-1.89 1.238-1.213-.563c-.667-.31-1.422-.607-1.679-.661-.414-.087-.481-.174-.608-.784-.692-3.328-.83-3.86-1.08-4.127C57.869.02 57.667 0 55.235 0 52.96 0 52.58.033 52.31.256zM41.45 8.13l3.101 3.368-2.35.04c-2.691.047-3.1-.054-3.766-.928l-.422-.553-.048-2.868c-.042-2.531-.023-2.842.168-2.648.12.12 1.612 1.736 3.318 3.589zm13.016 2.256c-.511.405-.647 1.034-.348 1.613.246.474.386.528 1.74.676 2.902.316 5.252 2.231 6.194 5.049.383 1.146.352 3.146-.067 4.353-.49 1.411-.42 1.955.298 2.326.498.258 1.146.168 1.484-.206.123-.136.405-.775.626-1.42.347-1.009.403-1.405.405-2.856.004-1.9-.238-3.02-.962-4.456-1.54-3.054-4.425-4.974-7.96-5.297-.9-.082-1.064-.057-1.41.218zm-48.22.318c-.528.416-.541 1.311-.026 1.826.302.302.5.36 1.237.36.712 0 .953-.065 1.28-.347a1.162 1.162 0 000-1.796c-.548-.472-1.915-.496-2.49-.043zm6.42.055a1.25 1.25 0 000 1.771l.359.36h17.311l.36-.36c.247-.248.359-.522.359-.885s-.112-.637-.36-.886l-.36-.36h-17.31l-.36.36zm-6.173 5.062c-.698.28-.871 1.48-.294 2.024.278.26.512.317 1.282.314 1.058-.005 1.38-.175 1.614-.847a1.187 1.187 0 00-.598-1.45c-.417-.21-1.528-.233-2.004-.041zm6.472.021c-.749.41-.914 1.445-.32 2.003l.339.318h17.434l.318-.339c.313-.333.415-.997.228-1.485-.25-.652-.446-.666-9.313-.661-5.792.003-8.484.054-8.686.164zm-6.812 5.544c-.195.195-.293.488-.293.879 0 .897.363 1.171 1.548 1.171 1.132 0 1.424-.126 1.673-.726.148-.358.148-.533 0-.89-.249-.6-.54-.727-1.673-.727-.766 0-1.021.06-1.255.293zm6.471.046c-.416.443-.43 1.308-.026 1.712.282.28.489.293 5.168.293 5.346 0 5.408-.01 5.596-.869.107-.486-.215-1.24-.59-1.384-.13-.05-2.395-.091-5.033-.091h-4.796l-.319.339zm21.58 1.177c-.403.188-.986.623-1.296.967-.99 1.099-1.035 1.304-1.093 5.024l-.052 3.332H26.46c-5.947 0-6.49.067-7.794.959-.825.563-1.515 1.435-1.92 2.422-.25.612-.265 1.599-.265 18.225v17.577l.426.922c.535 1.159 1.668 2.232 2.807 2.658l.815.305 25.44-.038 25.442-.038.732-.362c.936-.462 1.96-1.486 2.422-2.421l.361-.733.039-17.676c.039-17.562.037-17.68-.264-18.485-.422-1.128-1.406-2.173-2.6-2.76l-.976-.482-5.744-.044-5.743-.044-.046-3.471-.046-3.472-.4-.68a4.265 4.265 0 00-1.944-1.756c-.55-.25-1.25-.267-11.425-.269l-10.84-.001-.732.341zm21.633 2.15c.297.083.709.352.915.597l.376.447v6.129h-2.344v-4.98H36.767v4.98h-2.49v-2.86c0-3.551.152-4.035 1.356-4.32.741-.177 19.569-.169 20.204.008zm-3.543 5.928v1.245H39.258v-2.49h13.036v1.245zm18.325 3.904c.773.262 1.28.68 1.636 1.345.316.59.326.746.326 4.858 0 3.769-.028 4.3-.256 4.716-.322.589-1.043 1.145-1.857 1.433-.552.194-17.974 3.592-18.421 3.592-.124 0-.186-.683-.22-2.41l-.045-2.408-.507-.522c-.278-.287-.74-.587-1.025-.666-.286-.08-2.367-.145-4.626-.145-3.969-.001-4.13.01-4.76.328-.478.241-.743.506-.984.984-.296.587-.33.867-.33 2.758v2.104l-.402-.082c-.222-.045-4.26-.81-8.972-1.699-4.713-.889-8.856-1.722-9.207-1.851-.798-.295-1.615-1.001-1.874-1.62-.15-.36-.197-1.451-.195-4.544.004-4.445.061-4.797.916-5.583.845-.778-.364-.743 25.901-.75 18.057-.005 24.533.037 24.902.162zM49.36 51.524c-.003 4.218-.028 4.705-.275 5.236-1.135 2.448-4.367 2.93-6.096.91-.876-1.024-.95-1.52-.95-6.43v-4.367h7.327l-.004 4.65zm-19.272-.227l9.462 1.795v1.4c0 2.39.59 3.946 2 5.28a6.087 6.087 0 009.679-1.734c.537-1.086.553-1.164.603-2.986.043-1.584.088-1.88.293-1.941.133-.04 4.427-.87 9.543-1.845 6.648-1.268 9.526-1.876 10.088-2.131.433-.197.814-.358.847-.358.034 0 .043 4.895.02 10.876-.039 9.909-.065 10.917-.291 11.33-.321.587-1.184 1.342-1.695 1.485-.22.061-11.474.112-25.009.112H21.021l-.622-.333c-.343-.182-.804-.606-1.026-.94l-.403-.61-.04-10.95-.038-10.952.868.353c.563.229 4.195.984 10.33 2.148zm14.801 2.967c-.76.76-.234 2.13.817 2.13.583 0 1.314-.692 1.314-1.245 0-.234-.17-.559-.428-.817-.547-.546-1.199-.572-1.703-.069z" fill="#FF862F"/></svg>